<?xml version="1.0" encoding="UTF-8" standalone="no"?>
<!-- Created with Inkscape (http://www.inkscape.org/) -->

<svg
   width="793.70081"
   height="275"
   viewBox="0 0 210 72.760419"
   version="1.1"
   id="svg5"
   inkscape:version="1.1.1 (3bf5ae0, 2021-09-20)"
   sodipodi:docname="banner.svg"
   xmlns:inkscape="http://www.inkscape.org/namespaces/inkscape"
   xmlns:sodipodi="http://sodipodi.sourceforge.net/DTD/sodipodi-0.dtd"
   xmlns:xlink="http://www.w3.org/1999/xlink"
   xmlns="http://www.w3.org/2000/svg"
   xmlns:svg="http://www.w3.org/2000/svg">
  <sodipodi:namedview
     id="namedview7"
     pagecolor="#ffffff"
     bordercolor="#666666"
     borderopacity="1.0"
     inkscape:pageshadow="2"
     inkscape:pageopacity="0.0"
     inkscape:pagecheckerboard="0"
     inkscape:document-units="mm"
     showgrid="false"
     units="px"
     height="275px"
     inkscape:zoom="1.6034954"
     inkscape:cx="396.32169"
     inkscape:cy="257.56232"
     inkscape:window-width="1364"
     inkscape:window-height="707"
     inkscape:window-x="0"
     inkscape:window-y="35"
     inkscape:window-maximized="1"
     inkscape:current-layer="layer1" />
  <defs
     id="defs2">
    <linearGradient
       inkscape:collect="always"
       id="linearGradient12416">
      <stop
         style="stop-color:#a9a9a9;stop-opacity:1"
         offset="0"
         id="stop12412" />
      <stop
         style="stop-color:#264043;stop-opacity:0.68627459"
         offset="0.58202666"
         id="stop12676" />
      <stop
         style="stop-color:#1a121a;stop-opacity:1"
         offset="1"
         id="stop12414" />
    </linearGradient>
    <inkscape:path-effect
       effect="spiro"
       id="path-effect4583"
       is_visible="true"
       lpeversion="1" />
    <inkscape:path-effect
       effect="spiro"
       id="path-effect1695"
       is_visible="true"
       lpeversion="1" />
    <inkscape:path-effect
       effect="powerstroke"
       id="path-effect1691"
       is_visible="true"
       lpeversion="1"
       offset_points="0,118.941"
       not_jump="false"
       sort_points="true"
       interpolator_type="CubicBezierJohan"
       interpolator_beta="0.2"
       start_linecap_type="zerowidth"
       linejoin_type="extrp_arc"
       miter_limit="4"
       scale_width="1"
       end_linecap_type="zerowidth" />
    <inkscape:path-effect
       effect="powerstroke"
       id="path-effect1685"
       is_visible="true"
       lpeversion="1"
       offset_points="0,118.941"
       not_jump="false"
       sort_points="true"
       interpolator_type="CubicBezierJohan"
       interpolator_beta="0.2"
       start_linecap_type="zerowidth"
       linejoin_type="extrp_arc"
       miter_limit="4"
       scale_width="1"
       end_linecap_type="zerowidth" />
    <linearGradient
       inkscape:collect="always"
       xlink:href="#linearGradient12416"
       id="linearGradient15900"
       x1="2.7285154"
       y1="173.16486"
       x2="795.2168"
       y2="173.16486"
       gradientUnits="userSpaceOnUse"
       gradientTransform="matrix(0.26458333,0,0,0.26458333,0,-0.52916667)" />
  </defs>
  <g
     inkscape:label="Layer 1"
     inkscape:groupmode="layer"
     id="layer1">
    <path
       id="rect846"
       style="fill:url(#linearGradient15900);fill-opacity:1;stroke:#e6e6e6;stroke-width:0;stroke-linejoin:round;stroke-miterlimit:4;stroke-dasharray:none"
       d="m 210.40111,18.93011 c -0.17139,-0.04042 -0.34053,-0.09034 -0.51263,-0.12764 -0.5814,-0.126005 -1.16664,-0.234407 -1.75493,-0.325562 -0.5883,-0.09115 -1.17934,-0.165156 -1.7725,-0.222725 -0.59317,-0.05757 -1.18837,-0.09877 -1.78439,-0.124024 -0.59603,-0.02525 -1.1927,-0.03474 -1.78956,-0.02894 -0.59686,0.0058 -1.19387,0.02694 -1.78955,0.06253 -0.59568,0.03559 -1.19035,0.08574 -1.78284,0.149862 -0.59248,0.06412 -1.18305,0.141979 -1.77147,0.232544 -0.58842,0.09056 -1.17455,0.19365 -1.75855,0.309025 -0.58399,0.115374 -1.1659,0.242825 -1.74511,0.381372 -0.57921,0.138546 -1.15555,0.288471 -1.72961,0.448551 -0.57406,0.16008 -1.14556,0.330588 -1.71411,0.510563 -0.56855,0.179975 -1.13437,0.369176 -1.69705,0.567407 -0.56268,0.198232 -1.12253,0.405267 -1.67897,0.620118 -0.55644,0.21485 -1.10949,0.437829 -1.65933,0.667659 -0.54984,0.22983 -1.09634,0.46649 -1.63969,0.709518 -0.54336,0.243027 -1.08355,0.492358 -1.62109,0.747241 -0.53754,0.254883 -1.07217,0.515433 -1.60455,0.780831 -0.53239,0.265397 -1.06271,0.535717 -1.59061,0.810286 -1.05579,0.549139 -2.10317,1.115143 -3.14502,1.692921 -1.04185,0.577776 -2.0782,1.166998 -3.11144,1.762683 -2.06648,1.191366 -4.1211,2.40791 -6.18515,3.606496 -1.03203,0.599295 -2.06633,1.194223 -3.10575,1.77922 -1.03943,0.584999 -2.08358,1.160341 -3.13573,1.72031 -0.82514,0.43915 -1.65555,0.869035 -2.49081,1.289325 -0.83526,0.420291 -1.67534,0.830966 -2.52026,1.231966 -0.84491,0.401003 -1.69458,0.79229 -2.54868,1.173573 -0.85409,0.381283 -1.71274,0.752491 -2.57555,1.113626 -0.8628,0.361138 -1.72983,0.712091 -2.60088,1.05265 -0.87104,0.340558 -1.74633,0.670565 -2.62516,0.990121 -0.87882,0.319553 -1.76125,0.628438 -2.64738,0.926558 -0.88613,0.298119 -1.77561,0.585705 -2.66857,0.861962 -0.89297,0.276257 -1.7894,0.541337 -2.68873,0.7953 -0.89933,0.253966 -1.80158,0.496877 -2.70681,0.728123 -0.90523,0.231243 -1.81372,0.450781 -2.72438,0.658873 -0.91066,0.208095 -1.82375,0.404599 -2.73937,0.589111 -0.91562,0.184515 -1.83373,0.357293 -2.75383,0.517797 -0.92011,0.160507 -1.84211,0.308867 -2.76624,0.444937 -0.92414,0.136067 -1.85044,0.259831 -2.77813,0.371036 -0.92768,0.111202 -1.85666,0.209679 -2.78742,0.29559 -0.83711,0.07726 -1.6748,0.143975 -2.51251,0.201535 -0.83772,0.05756 -1.6758,0.105694 -2.51406,0.145212 -0.83826,0.03952 -1.67635,0.07092 -2.51509,0.09405 -0.83875,0.02314 -1.67799,0.03809 -2.51716,0.04651 -0.83918,0.0084 -1.67865,0.0098 -2.5182,0.0052 -0.83955,-0.0046 -1.67936,-0.01495 -2.51922,-0.031 -1.67973,-0.03211 -3.359894,-0.08572 -5.040522,-0.153479 -1.680625,-0.06776 -3.361529,-0.150154 -5.042585,-0.240295 -1.681057,-0.09014 -3.362084,-0.188079 -5.043104,-0.287322 -1.681017,-0.09924 -3.362076,-0.19949 -5.042585,-0.294555 -1.680509,-0.09507 -3.360473,-0.184904 -5.040003,-0.262517 -1.67953,-0.07761 -3.363876,-0.142274 -5.050338,-0.188103 -0.843229,-0.02291 -1.687086,-0.04115 -2.53111,-0.05374 -0.844026,-0.01259 -1.687949,-0.01947 -2.532147,-0.02016 -0.844195,-6.8e-4 -1.688401,0.0048 -2.532144,0.01757 -0.843743,0.01281 -1.687415,0.03257 -2.530078,0.06046 -0.842664,0.02789 -1.684467,0.06396 -2.525427,0.108519 -0.840962,0.04456 -1.68111,0.09791 -2.519743,0.160713 -0.838634,0.0628 -1.675795,0.134921 -2.511476,0.217559 -0.835678,0.08264 -1.669552,0.175514 -2.501656,0.279569 -0.832102,0.104055 -1.662385,0.219173 -2.490285,0.346231 -0.827902,0.127061 -1.653778,0.266417 -2.476852,0.418063 -0.823074,0.151648 -1.643211,0.31569 -2.460831,0.493511 -0.817624,0.177821 -1.632752,0.369062 -2.444298,0.574641 -0.811543,0.205579 -1.619813,0.425503 -2.424657,0.660426 -0.804844,0.234921 -1.605952,0.485008 -2.40347,0.750859 -0.848283,0.282773 -1.689103,0.58217 -2.522844,0.897101 -0.833739,0.314934 -1.660533,0.645314 -2.480985,0.989605 -0.820452,0.34429 -1.634329,0.702469 -2.442744,1.07332 -0.808419,0.370848 -1.611522,0.754676 -2.409156,1.149284 -0.797637,0.394604 -1.590043,0.800383 -2.37815,1.215945 -0.788107,0.415563 -1.571962,0.840621 -2.351794,1.274342 -0.779832,0.433721 -1.55573,0.875906 -2.32854,1.324983 -0.77281,0.449077 -1.542379,0.905206 -2.30942,1.36684 -0.767041,0.461635 -1.531391,0.929042 -2.293917,1.400432 -0.762526,0.471392 -1.523284,0.946891 -2.282548,1.425236 -1.518527,0.956694 -3.031428,1.9241 -4.5444252,2.891814 -1.5129975,0.967713 -3.0258982,1.93548 -4.5433919,2.891814 C 3.813067,70.129211 3.0530837,70.604644 2.291333,71.075763 1.7695685,71.39846 1.2455889,71.716079 0.72191974,72.034362 1.0558841,72.305835 1.4766393,72.475163 1.9425171,72.475163 H 208.45859 c 1.0761,0 1.94252,-0.866423 1.94252,-1.942518 z" />
    <path
       id="path8791"
       style="fill:#353535;fill-opacity:0.9921568;stroke:#e6e6e6;stroke-width:0;stroke-linejoin:round;stroke-miterlimit:4;stroke-dasharray:none"
       d="M 7.3417969 0 C 3.2746607 1.1842379e-15 0 3.2746607 0 7.3417969 L 0 268.58008 C 6.715421e-16 270.88642 1.0752177 272.91192 2.7285156 274.25586 C 4.7077376 273.0529 6.688133 271.85245 8.6601562 270.63281 C 11.539214 268.8522 14.411592 267.05529 17.279297 265.24805 C 23.014706 261.63356 28.732756 257.97586 34.451172 254.31836 C 40.169588 250.66086 45.887638 247.00452 51.626953 243.38867 C 54.496611 241.58075 57.371919 239.78359 60.253906 238.00195 C 63.135894 236.22032 66.024774 234.45374 68.923828 232.70898 C 71.822882 230.96422 74.731487 229.24027 77.652344 227.54297 C 80.573201 225.84567 83.505728 224.17442 86.453125 222.53516 C 89.400522 220.8959 92.363124 219.28938 95.341797 217.71875 C 98.32047 216.14812 101.31539 214.61447 104.33008 213.12305 C 107.34476 211.63162 110.38011 210.18093 113.43555 208.7793 C 116.49098 207.37766 119.56705 206.02391 122.66797 204.72266 C 125.76889 203.4214 128.89378 202.17272 132.04492 200.98242 C 135.19607 199.79213 138.37397 198.66055 141.58008 197.5918 C 144.59432 196.58701 147.62213 195.6418 150.66406 194.75391 C 153.70599 193.86601 156.76087 193.0348 159.82812 192.25781 C 162.89538 191.48082 165.97618 190.75802 169.06641 190.08594 C 172.15663 189.41386 175.25636 188.79386 178.36719 188.2207 C 181.47802 187.64755 184.59944 187.12085 187.72852 186.64062 C 190.85759 186.1604 193.99567 185.72531 197.14062 185.33203 C 200.28558 184.93875 203.43723 184.58772 206.5957 184.27539 C 209.75418 183.96306 212.91825 183.69049 216.08789 183.45312 C 219.25753 183.21576 222.43289 183.0141 225.61133 182.8457 C 228.78976 182.67731 231.97138 182.54096 235.15625 182.43555 C 238.34112 182.33013 241.5298 182.25546 244.71875 182.20703 C 247.9077 182.15861 251.0984 182.13805 254.28906 182.14062 C 257.47973 182.1432 260.66936 182.16921 263.85938 182.2168 C 267.04939 182.26438 270.23877 182.33332 273.42578 182.41992 C 279.79981 182.59313 286.16584 182.83752 292.51367 183.13086 C 298.8615 183.4242 305.21097 183.76374 311.5625 184.12305 C 317.91403 184.48235 324.26764 184.86124 330.62109 185.23633 C 336.97455 185.61142 343.32804 185.98157 349.68164 186.32227 C 356.03524 186.66296 362.38826 186.97436 368.74023 187.23047 C 375.09221 187.48658 381.44244 187.6892 387.79102 187.81055 C 390.9653 187.87122 394.1394 187.91016 397.3125 187.92773 C 400.4856 187.94531 403.65838 187.94 406.83008 187.9082 C 410.00177 187.8764 413.17368 187.81987 416.34375 187.73242 C 419.51382 187.64498 422.68139 187.52632 425.84961 187.37695 C 429.01783 187.22759 432.18541 187.04568 435.35156 186.82812 C 438.51771 186.61057 441.6838 186.35842 444.84766 186.06641 C 448.36552 185.74171 451.8766 185.36951 455.38281 184.94922 C 458.88902 184.52892 462.39003 184.06115 465.88281 183.54688 C 469.3756 183.0326 472.86031 182.47187 476.33789 181.86523 C 479.81547 181.2586 483.28548 180.60558 486.74609 179.9082 C 490.2067 179.21083 493.65775 178.46814 497.09961 177.68164 C 500.54147 176.89515 503.97514 176.0654 507.39648 175.19141 C 510.81783 174.31741 514.2279 173.39932 517.62695 172.43945 C 521.026 171.47959 524.41408 170.47771 527.78906 169.43359 C 531.16405 168.38947 534.52585 167.30253 537.875 166.17578 C 541.22415 165.04903 544.55932 163.88159 547.88086 162.67383 C 551.2024 161.46606 554.51058 160.21879 557.80273 158.93164 C 561.09489 157.64449 564.37182 156.31805 567.63281 154.95312 C 570.89381 153.5882 574.13912 152.18521 577.36719 150.74414 C 580.59526 149.30307 583.80663 147.82419 587 146.30859 C 590.19337 144.793 593.3685 143.24084 596.52539 141.65234 C 599.68228 140.06384 602.82081 138.43908 605.93945 136.7793 C 609.91609 134.66288 613.86249 132.48836 617.79102 130.27734 C 621.71954 128.06633 625.62872 125.81778 629.5293 123.55273 C 637.33045 119.02264 645.09592 114.42468 652.90625 109.92188 C 656.81142 107.67047 660.72831 105.44349 664.66602 103.25977 C 668.60372 101.07604 672.56234 98.936815 676.55273 96.861328 C 678.54793 95.823585 680.5523 94.801905 682.56445 93.798828 C 684.57661 92.795752 686.59728 91.810995 688.62891 90.847656 C 690.66054 89.884318 692.70223 88.941967 694.75586 88.023438 C 696.80948 87.104908 698.87498 86.210447 700.95312 85.341797 C 703.03127 84.473147 705.12153 83.630391 707.22461 82.818359 C 709.32769 82.006327 711.44366 81.223831 713.57031 80.474609 C 715.69697 79.725388 717.83552 79.010298 719.98438 78.330078 C 722.13323 77.649858 724.29321 77.005416 726.46289 76.400391 C 728.63258 75.795365 730.81085 75.228718 733 74.705078 C 735.18915 74.181438 737.38847 73.699734 739.5957 73.263672 C 741.80294 72.82761 744.01823 72.437995 746.24219 72.095703 C 748.46614 71.753411 750.69819 71.459127 752.9375 71.216797 C 755.17681 70.974466 757.42439 70.784915 759.67578 70.650391 C 761.92717 70.515866 764.1836 70.435999 766.43945 70.414062 C 768.69531 70.392126 770.95044 70.428004 773.20312 70.523438 C 775.45581 70.618871 777.70538 70.774601 779.94727 70.992188 C 782.18915 71.209774 784.42302 71.489464 786.64648 71.833984 C 788.86995 72.178505 791.08189 72.588215 793.2793 73.064453 C 793.92977 73.205428 794.56904 73.394087 795.2168 73.546875 L 795.2168 7.3417969 C 795.2168 3.2746607 791.94214 0 787.875 0 L 7.3417969 0 z "
       transform="scale(0.26458333)" />
  </g>
</svg>
