<?xml version="1.0" encoding="UTF-8" standalone="no"?>
<!-- Created with Inkscape (http://www.inkscape.org/) -->

<svg
   width="100"
   height="40"
   viewBox="0 0 26.458335 10.583333"
   version="1.1"
   id="svg5"
   sodipodi:docname="hruda logo.svg"
   inkscape:version="1.1.1 (3bf5ae0, 2021-09-20)"
   xmlns:inkscape="http://www.inkscape.org/namespaces/inkscape"
   xmlns:sodipodi="http://sodipodi.sourceforge.net/DTD/sodipodi-0.dtd"
   xmlns="http://www.w3.org/2000/svg"
   xmlns:svg="http://www.w3.org/2000/svg">
  <sodipodi:namedview
     id="namedview7"
     pagecolor="#ffffff"
     bordercolor="#666666"
     borderopacity="1.0"
     inkscape:pageshadow="2"
     inkscape:pageopacity="0.0"
     inkscape:pagecheckerboard="0"
     inkscape:document-units="mm"
     showgrid="false"
     showborder="true"
     borderlayer="false"
     showguides="false"
     inkscape:zoom="6.0454062"
     inkscape:cx="45.09788"
     inkscape:cy="17.597959"
     inkscape:window-width="1364"
     inkscape:window-height="707"
     inkscape:window-x="0"
     inkscape:window-y="35"
     inkscape:window-maximized="1"
     inkscape:current-layer="g1107"
     units="px" />
  <defs
     id="defs2" />
  <g
     inkscape:label="Layer 1"
     inkscape:groupmode="layer"
     id="layer1">
    <g
       id="g1107"
       transform="matrix(0.10263954,0,0,0.10263954,-0.11653271,-6.1003958)">
      <rect
         style="fill:#000000;fill-opacity:1;stroke-width:0;stroke-linejoin:round"
         id="rect20593"
         width="259.40372"
         height="101.16582"
         x="1.480837"
         y="60.264359"
         ry="2.3147769" />
      <g
         id="g2589"
         transform="matrix(1.1817886,0,0,1.1817886,-19.746654,-18.439929)"
         style="fill:#f34c26;fill-opacity:1">
        <g
           id="g15837"
           transform="matrix(0.0802982,-0.29202562,0.29202562,0.0802982,12.242605,118.86231)"
           style="fill:#f34c26;fill-opacity:1">
          <path
             id="path15833"
             style="fill:#f34c26;fill-opacity:1;stroke:#000000;stroke-width:0.999999px;stroke-linecap:butt;stroke-linejoin:miter;stroke-opacity:1"
             d="m 646.16602,100.66406 -54.50586,7.53321 -33.26368,12.23828 c 0,0 -59.36837,11.44451 -34.62304,18.31836 a 247.25009,247.25009 0 0 0 -80.23828,17.16992 247.25009,247.25009 0 0 0 -137.84375,321.34765 247.25009,247.25009 0 0 0 120.08007,129.70899 l 7.30664,16.48437 7.12891,26.61719 43.55078,23.50195 44.38477,14.41407 -7.8418,-55.74805 A 247.25009,247.25009 0 0 1 404.4043,504.63867 247.25009,247.25009 0 0 1 542.24805,183.29102 247.25009,247.25009 0 0 1 648.97852,166.15625 c 0.005,0.001 0.002,4.9e-4 0.008,0.002 l 38.50781,-55.33008 z"
             transform="scale(0.26458333)" />
          <path
             id="path15835"
             style="fill:#f34c26;fill-opacity:1;stroke:#e60a00;stroke-width:0"
             d="M 181.89971,29.323132 A 81.008529,81.008529 0 0 0 114.58685,25.970319 81.008529,81.008529 0 0 0 69.423717,131.25584 81.008529,81.008529 0 0 0 139.73788,182.03286 81.008529,81.008529 0 0 1 101.76569,140.22234 81.008529,81.008529 0 0 1 146.92882,34.936817 81.008529,81.008529 0 0 1 181.89971,29.323132 Z" />
        </g>
        <g
           id="g15831"
           transform="matrix(-0.11441441,0.2804213,-0.2804213,-0.11441441,96.091664,101.03715)"
           style="fill:#f34c26;fill-opacity:1">
          <path
             id="path1442"
             style="fill:#f34c26;fill-opacity:1;stroke:#000000;stroke-width:0.999999px;stroke-linecap:butt;stroke-linejoin:miter;stroke-opacity:1"
             d="m 646.16602,100.66406 -54.50586,7.53321 -33.26368,12.23828 c 0,0 -59.36837,11.44451 -34.62304,18.31836 a 247.25009,247.25009 0 0 0 -80.23828,17.16992 247.25009,247.25009 0 0 0 -137.84375,321.34765 247.25009,247.25009 0 0 0 120.08007,129.70899 l 7.30664,16.48437 7.12891,26.61719 43.55078,23.50195 44.38477,14.41407 -7.8418,-55.74805 A 247.25009,247.25009 0 0 1 404.4043,504.63867 247.25009,247.25009 0 0 1 542.24805,183.29102 247.25009,247.25009 0 0 1 648.97852,166.15625 c 0.005,0.001 0.002,4.9e-4 0.008,0.002 l 38.50781,-55.33008 z"
             transform="scale(0.26458333)" />
          <path
             id="path1054"
             style="fill:#f34c26;fill-opacity:1;stroke:#e60a00;stroke-width:0"
             d="M 181.89971,29.323132 A 81.008529,81.008529 0 0 0 114.58685,25.970319 81.008529,81.008529 0 0 0 69.423717,131.25584 81.008529,81.008529 0 0 0 139.73788,182.03286 81.008529,81.008529 0 0 1 101.76569,140.22234 81.008529,81.008529 0 0 1 146.92882,34.936817 81.008529,81.008529 0 0 1 181.89971,29.323132 Z" />
        </g>
      </g>
      <text
         xml:space="preserve"
         style="font-style:normal;font-variant:normal;font-weight:bold;font-stretch:normal;font-size:44.6574px;line-height:1.25;font-family:'2015 Cruiser';-inkscape-font-specification:'2015 Cruiser, Bold';font-variant-ligatures:none;font-variant-caps:normal;font-variant-numeric:normal;font-variant-east-asian:normal;fill:#ffffff;fill-opacity:0.96436918;stroke-width:3.72145"
         x="75.29438"
         y="146.38705"
         id="text1709"><tspan
           sodipodi:role="line"
           id="tspan1707"
           style="font-style:normal;font-variant:normal;font-weight:bold;font-stretch:normal;font-size:44.6574px;font-family:'2015 Cruiser';-inkscape-font-specification:'2015 Cruiser, Bold';font-variant-ligatures:none;font-variant-caps:normal;font-variant-numeric:normal;font-variant-east-asian:normal;fill:#ffffff;fill-opacity:0.96436918;stroke-width:3.72145"
           x="75.29438"
           y="146.38705">NIYAL</tspan></text>
    </g>
  </g>
</svg>
