<?xml version="1.0" encoding="UTF-8" standalone="no"?>
<!-- Created with Inkscape (http://www.inkscape.org/) -->

<svg
   width="220mm"
   height="96mm"
   viewBox="0 0 220 96"
   version="1.1"
   id="svg5"
   inkscape:version="1.1.1 (3bf5ae0, 2021-09-20)"
   sodipodi:docname="plane black gray.svg"
   xmlns:inkscape="http://www.inkscape.org/namespaces/inkscape"
   xmlns:sodipodi="http://sodipodi.sourceforge.net/DTD/sodipodi-0.dtd"
   xmlns="http://www.w3.org/2000/svg"
   xmlns:svg="http://www.w3.org/2000/svg">
  <sodipodi:namedview
     id="namedview7"
     pagecolor="#ffffff"
     bordercolor="#666666"
     borderopacity="1.0"
     inkscape:pageshadow="2"
     inkscape:pageopacity="0.0"
     inkscape:pagecheckerboard="0"
     inkscape:document-units="mm"
     showgrid="false"
     units="mm"
     inkscape:zoom="0.27700723"
     inkscape:cx="590.2373"
     inkscape:cy="620.92242"
     inkscape:window-width="1364"
     inkscape:window-height="707"
     inkscape:window-x="0"
     inkscape:window-y="35"
     inkscape:window-maximized="1"
     inkscape:current-layer="layer1" />
  <defs
     id="defs2">
    <inkscape:path-effect
       effect="spiro"
       id="path-effect981"
       is_visible="true"
       lpeversion="1" />
  </defs>
  <g
     inkscape:label="Layer 1"
     inkscape:groupmode="layer"
     id="layer1">
    <g
       id="g1278"
       transform="matrix(0.6209643,0,0,0.45983057,0.18226747,1.0462264e-7)">
      <path
         id="rect846"
         style="fill:#666666;stroke:#e60a00;stroke-width:0"
         d="m 357.34304,66.794886 c -0.46445,0.451658 -0.93417,0.898011 -1.39579,1.352564 -1.15392,1.136262 -2.29933,2.281446 -3.43752,3.433871 -2.27636,2.30485 -4.52379,4.639307 -6.75359,6.992196 -2.22978,2.352886 -4.44156,4.724002 -6.64662,7.102766 -4.41011,4.757524 -8.79266,9.544848 -13.23486,14.27289 -2.22107,2.364027 -4.45709,4.713007 -6.71896,7.036417 -2.26184,2.32341 -4.54954,4.6215 -6.87401,6.88215 -1.16221,1.13031 -2.33712,2.25268 -3.52483,3.36547 -1.18774,1.11278 -2.38847,2.21587 -3.60185,3.30684 -1.21338,1.09096 -2.43965,2.16996 -3.67885,3.23484 -1.2392,1.06487 -2.49118,2.11547 -3.75637,3.14999 -1.26516,1.03449 -2.5436,2.05293 -3.83489,3.05278 -1.2913,0.99985 -2.59533,1.98129 -3.91295,2.94221 -1.3176,0.96093 -2.64846,1.90108 -3.99251,2.8188 -1.34409,0.91771 -2.70143,1.81278 -4.0721,2.68301 -1.3707,0.87022 -2.75474,1.71592 -4.15221,2.53438 -1.39748,0.81846 -2.8084,1.60997 -4.23281,2.37238 -1.42443,0.76243 -2.86242,1.49545 -4.31395,2.19754 -1.45155,0.7021 -2.91679,1.37285 -4.3956,2.01033 -1.47882,0.6375 -2.97152,1.24167 -4.47777,1.81029 -1.50624,0.56861 -3.02608,1.1019 -4.55993,1.59736 -1.53384,0.49546 -3.08152,0.95306 -4.64312,1.37107 -1.5616,0.41802 -3.13732,0.79666 -4.72685,1.13298 -1.62365,0.34352 -3.25075,0.64126 -4.88083,0.89639 -1.63009,0.25512 -3.26279,0.46719 -4.89841,0.63976 -1.63562,0.17258 -3.27419,0.30576 -4.91443,0.40165 -1.64025,0.096 -3.28234,0.15493 -4.92632,0.18001 -1.64397,0.0251 -3.28933,0.0162 -4.93613,-0.0237 -1.64679,-0.0399 -3.29517,-0.11086 -4.94388,-0.20983 -1.64872,-0.0989 -3.29828,-0.22631 -4.94802,-0.37851 -1.64974,-0.15219 -3.29971,-0.32911 -4.94957,-0.52868 -1.64986,-0.19957 -3.29946,-0.42131 -4.94853,-0.66239 -1.64908,-0.24109 -3.29753,-0.5019 -4.94492,-0.77863 -1.64739,-0.27673 -3.2934,-0.56983 -4.9382,-0.87633 -1.64481,-0.30652 -3.2881,-0.62615 -4.92942,-0.95657 -3.28263,-0.66088 -6.55783,-1.36404 -9.8211,-2.08543 -3.26327,-0.72138 -6.51465,-1.46097 -9.75134,-2.19599 -3.2367,-0.735 -6.49312,-1.46544 -9.76324,-2.1677 -3.27011,-0.70227 -6.55432,-1.37665 -9.84745,-1.99953 -1.64657,-0.31144 -3.29507,-0.60995 -4.94544,-0.8928 -1.65037,-0.28285 -3.30239,-0.54973 -4.95525,-0.79817 -1.65287,-0.24843 -3.30687,-0.47838 -4.96094,-0.68656 -1.65407,-0.20818 -3.308,-0.39488 -4.96197,-0.55698 -1.65397,-0.1621 -3.30786,-0.29969 -4.96042,-0.40989 -1.65257,-0.11018 -3.30384,-0.19285 -4.95371,-0.2453 -1.64986,-0.0524 -3.29802,-0.0744 -4.94388,-0.0632 -1.64586,0.0111 -3.28937,0.0552 -4.92993,0.13576 -1.64056,0.0805 -3.27841,0.19757 -4.91236,0.35332 -1.63396,0.15575 -3.26409,0.3505 -4.890135,0.58731 -1.626053,0.23682 -3.247975,0.5156 -4.86482,0.83931 -1.616847,0.32371 -3.229025,0.69236 -4.835363,1.10879 -1.161738,0.30117 -2.315152,0.62595 -3.460256,0.97406 -1.145103,0.3481 -2.281682,0.71945 -3.410127,1.1124 -1.128445,0.39293 -2.248757,0.80788 -3.360518,1.24353 -1.11176,0.43565 -2.214824,0.89173 -3.309876,1.36799 -1.095052,0.47625 -2.181945,0.97255 -3.260265,1.48731 -1.07832,0.51474 -2.148059,1.04828 -3.209623,1.59942 -1.061564,0.55114 -2.114717,1.11995 -3.159498,1.70537 -1.044782,0.5854 -2.081395,1.18704 -3.10937,1.80461 -1.027978,0.61758 -2.047584,1.25111 -3.058729,1.89874 -1.011145,0.64762 -2.013794,1.30956 -3.008085,1.98513 -0.994291,0.67557 -1.98003,1.36448 -2.957441,2.06588 -0.977413,0.70139 -1.946293,1.41532 -2.9068,2.14044 -0.960509,0.72512 -1.912577,1.46161 -2.856156,2.20833 -0.943581,0.74674 -1.878888,1.50383 -2.805514,2.27006 -1.853253,1.53244 -3.672256,3.10173 -5.457547,4.69951 -1.785295,1.59778 -3.541522,3.22507 -5.27358,4.87695 -1.73206,1.65188 -3.440118,3.32815 -5.129403,5.02352 -1.689288,1.69537 -3.359774,3.40994 -5.016748,5.1382 -1.656976,1.72826 -3.300492,3.47045 -4.935616,5.221 -3.27025,3.50112 -6.507281,7.03624 -9.7528927,10.56286 -1.6228063,1.76332 -3.247984,3.52431 -4.8803224,5.2781 -1.6323381,1.7538 -3.2719156,3.5002 -4.92424705,5.23386 H 357.34304 Z" />
      <path
         id="path1129"
         style="fill:#1a1a1a;stroke:#e60a00;stroke-width:0"
         d="M -0.29352215,5e-7 V 211.97139 c 1.65368765,-1.72789 3.29461075,-3.46847 4.92828855,-5.21641 1.6336781,-1.74795 3.2601897,-3.50306 4.8843281,-5.26051 3.2482755,-3.51487 6.4879635,-7.03821 9.7608975,-10.52765 1.636466,-1.74471 3.281331,-3.4811 4.939667,-5.2036 1.658333,-1.7225 3.33019,-3.43136 5.020865,-5.12108 1.690671,-1.68972 3.400131,-3.3604 5.133613,-5.00677 1.733479,-1.64637 3.491148,-3.26825 5.277908,-4.86069 1.786756,-1.59246 3.607252,-3.15652 5.462026,-4.68386 0.927387,-0.76366 1.863461,-1.51824 2.807817,-2.26248 0.944353,-0.74424 1.897202,-1.47827 2.8585,-2.20097 0.961295,-0.7227 1.93097,-1.43425 2.909186,-2.13331 0.978213,-0.69906 1.964761,-1.38568 2.959868,-2.05899 0.995107,-0.67332 1.998579,-1.33305 3.010554,-1.97852 1.011974,-0.64546 2.032417,-1.27688 3.061239,-1.89241 1.028819,-0.61551 2.066282,-1.21514 3.111922,-1.7986 1.045638,-0.58346 2.099656,-1.15038 3.162091,-1.69967 1.062435,-0.54931 2.133052,-1.08107 3.212257,-1.5941 1.079205,-0.51304 2.16699,-1.00768 3.262941,-1.48234 1.095951,-0.47468 2.19992,-0.92924 3.312593,-1.36343 1.112673,-0.43421 2.233904,-0.84778 3.363276,-1.2394 1.129371,-0.39162 2.266883,-0.76175 3.412925,-1.10869 1.146044,-0.34695 2.300405,-0.67064 3.463096,-0.97081 1.607657,-0.41503 3.221158,-0.78247 4.839332,-1.10509 1.618172,-0.32263 3.241425,-0.60049 4.868813,-0.83652 1.627389,-0.23602 3.258859,-0.43012 4.894159,-0.58535 1.63529,-0.15524 3.27448,-0.27188 4.91639,-0.35213 1.6419,-0.0803 3.28676,-0.12424 4.93397,-0.13532 1.64721,-0.0111 3.29673,0.0108 4.94794,0.0631 1.65123,0.0523 3.30385,0.13466 4.95778,0.24449 1.65391,0.10982 3.30916,0.24695 4.96449,0.40851 1.65533,0.16156 3.31061,0.34764 4.96604,0.55512 1.65543,0.20748 3.31079,0.43667 4.96501,0.68428 1.65422,0.2476 3.30759,0.51359 4.95932,0.79551 1.65172,0.2819 3.30158,0.57941 4.9495,0.88981 3.29583,0.62081 6.58274,1.29295 9.85553,1.99287 3.2728,0.69992 6.5319,1.42792 9.77125,2.16048 3.23935,0.73256 6.4934,1.46969 9.75935,2.18868 3.26594,0.71897 6.54383,1.41979 9.82916,2.07846 1.64266,0.32933 3.2873,0.64789 4.93346,0.95338 1.64615,0.30549 3.29351,0.59761 4.94226,0.87341 1.64874,0.27581 3.29854,0.53576 4.94897,0.77604 1.65043,0.24027 3.30138,0.46127 4.9526,0.66019 1.65121,0.1989 3.30253,0.37522 4.95363,0.52691 1.65109,0.1517 3.30201,0.27861 4.95208,0.37726 1.65006,0.0986 3.29979,0.16938 4.94794,0.20912 1.64815,0.0398 3.29486,0.0486 4.94018,0.0236 1.64533,-0.025 3.28876,-0.0838 4.93036,-0.1794 1.64159,-0.0956 3.2815,-0.22831 4.91846,-0.40031 1.63697,-0.17201 3.27101,-0.38337 4.90243,-0.63765 1.63142,-0.25426 3.25986,-0.55102 4.88484,-0.89339 1.59083,-0.33519 3.16785,-0.71257 4.73073,-1.1292 1.56288,-0.41662 3.11183,-0.8727 4.64693,-1.36651 1.53511,-0.4938 3.0562,-1.02531 4.56367,-1.59204 1.50749,-0.56672 3.00141,-1.16887 4.48145,-1.80424 1.48002,-0.63537 2.94646,-1.30388 4.39921,-2.00363 1.45272,-0.69975 2.89189,-1.43033 4.31749,-2.19021 1.42557,-0.75987 2.83765,-1.54875 4.23628,-2.36448 1.39862,-0.81573 2.78379,-1.65861 4.15562,-2.52594 1.37179,-0.86733 2.73025,-1.75941 4.07544,-2.67407 1.34515,-0.91465 2.67711,-1.85167 3.99579,-2.80939 1.3187,-0.95773 2.6238,-1.93589 3.91616,-2.93241 1.29235,-0.99652 2.57184,-2.01156 3.83804,-3.04261 1.26622,-1.03106 2.51923,-2.07816 3.75945,-3.13948 1.24022,-1.06134 2.46749,-2.13673 3.68187,-3.22406 1.21437,-1.08734 2.41609,-2.18675 3.6048,-3.29582 1.18869,-1.10908 2.36456,-2.22771 3.52773,-3.35426 2.32637,-2.2531 4.61595,-4.54353 6.87965,-6.85919 2.26372,-2.31568 4.50158,-4.65683 6.72447,-7.01297 4.44585,-4.712303 8.832,-9.483669 13.24573,-14.225335 2.20686,-2.370835 4.42046,-4.734048 6.65207,-7.079091 2.23163,-2.345046 4.4809,-4.671722 6.75913,-6.968889 1.13913,-1.148585 2.28548,-2.289951 3.44034,-3.422425 0.462,-0.453039 0.93211,-0.897903 1.39694,-1.348056 V 5e-7 Z" />
    </g>
  </g>
</svg>
